<svg version="1.1" preserveAspectRatio="none" xmlns="http://www.w3.org/2000/svg" width="500" height="500" viewBox="0 0 500 500"><rect width="100%" height="100%" fill="#FFFFFF" fill-opacity="1"/><svg viewBox="52.4534 200.0629 323.5104 40" width="333" height="41.17332858541796" x="83.5px" y="229.4133px" xmlns="http://www.w3.org/2000/svg" xmlns:xlink="http://www.w3.org/1999/xlink" preserveAspectRatio="none"><defs></defs><style>.companyName {fill:#121212;fill-opacity:1;}.icon3-str {stroke:#5F5F5F;stroke-opacity:1;}</style><g opacity="1" transform="rotate(0 52.4534 200.0629)">
<svg width="323.5104" height="40" x="52.4534" y="200.0629" version="1.1" preserveAspectRatio="none" viewBox="1.6 -22.4044 184.72 22.8444">
  <g transform="matrix(1 0 0 1 0 0)" class="companyName"><path id="id-D6z1nYkh8" d="M9.60-21.60L9.60-21.60L9.60-8.56Q12.88-8.56 14.08-9.98Q15.28-11.40 15.28-14.96Q15.28-18.52 14.08-20.06Q12.88-21.60 9.60-21.60ZM9.60-0.80L11.60-0.80L11.60 0L1.60 0L1.60-0.80L3.60-0.80L3.60-21.60L1.60-21.60L1.60-22.40L9.56-22.40Q21.32-22.96 21.32-14.84L21.32-14.84Q21.32-11.24 18.36-9.36Q15.40-7.48 9.60-7.76L9.60-7.76L9.60-0.80Z M45.92 0L37.92 0L37.92-2.12Q37.16-1.04 35.54-0.30Q33.92 0.44 32.04 0.44L32.04 0.44Q24.92 0.44 24.92-7.28L24.92-7.28L24.92-17.60L22.92-17.60L22.92-18.40L30.92-18.40L30.92-6.40Q30.92-3.56 31.76-2.36Q32.60-1.16 34.28-1.16L34.28-1.16Q36.52-1.16 37.92-3.56L37.92-3.56L37.92-17.60L35.92-17.60L35.92-18.40L43.92-18.40L43.92-0.80L45.92-0.80L45.92 0Z M58.72-0.80L58.72 0L48.72 0L48.72-0.80L50.72-0.80L50.72-17.60L48.72-17.60L48.72-18.40L56.72-18.40L56.72-13.64Q57.08-15.60 58.02-16.84Q58.96-18.08 60.10-18.48Q61.24-18.88 62.30-18.88Q63.36-18.88 64.34-18.50Q65.32-18.12 65.80-16.98Q66.28-15.84 65.84-14.70Q65.40-13.56 64.30-13.08Q63.20-12.60 62.28-12.96Q61.36-13.32 60.96-13.94Q60.56-14.56 60.40-15.12L60.40-15.12Q60.00-16.60 59.32-16.60L59.32-16.60Q58.56-16.60 57.64-13.98Q56.72-11.36 56.72-8.44L56.72-8.44L56.72-0.80L58.72-0.80Z M85.72-8L85.72-8L73.64-8Q74.04-0.96 79.12-0.96L79.12-0.96Q80.48-0.96 82.22-1.60Q83.96-2.24 84.76-3.40L84.76-3.40L85.32-3Q84.44-1.52 82.32-0.56Q80.20 0.40 78.10 0.40Q76 0.40 74.32-0.02Q72.64-0.44 71.04-1.44Q69.44-2.44 68.54-4.44Q67.64-6.44 67.64-9.28L67.64-9.28Q67.64-14.12 70.32-16.46Q73-18.80 76.82-18.80Q80.64-18.80 83.18-16.24Q85.72-13.68 85.72-8ZM73.60-9.24L73.60-8.80L80.12-8.80Q80.12-12.48 79.34-15.24Q78.56-18 76.84-18Q75.12-18 74.36-15.34Q73.60-12.68 73.60-9.24L73.60-9.24Z M89.36-21.60L87.44-21.60L87.44-22.40L99.16-22.40L99.16-21.60L97.20-21.60L102.68-9.24L105.24-15.60L102.56-21.60L101.04-21.60L101.04-22.40L112-22.40L112-21.60L110.12-21.60L115.48-9.40L119.72-21.60L116.52-21.60L116.52-22.40L123.40-22.40L123.40-21.60L120.68-21.60L113.20 0L112.24 0L112.40-0.44L112.20 0L105.76-14.48L99.96 0L99 0L89.36-21.60Z M144.80-0.80Q144.40-0.40 143.28-0.10Q142.16 0.20 140.68 0.20L140.68 0.20Q137.40 0.20 136.56-1.76L136.56-1.76Q134.56 0.32 130.44 0.32L130.44 0.32Q128.24 0.32 126.82-0.70Q125.40-1.72 125.40-3.72L125.40-3.72Q125.40-6.40 127.48-7.86Q129.56-9.32 134.76-9.92L134.76-9.92L136.36-10.12L136.36-12.08Q136.36-15.56 135.84-16.76Q135.32-17.96 133.78-17.96Q132.24-17.96 131.80-17.54Q131.36-17.12 131.48-16.58Q131.60-16.04 131.88-15.16Q132.16-14.28 132.16-13.76L132.16-13.76Q132.16-12.52 131.30-11.66Q130.44-10.80 129.22-10.80Q128.00-10.80 127.12-11.66Q126.24-12.52 126.24-13.76L126.24-13.76Q126.24-15.80 128.34-17.26Q130.44-18.72 134.62-18.72Q138.80-18.72 140.58-17.08Q142.36-15.44 142.36-11.28L142.36-11.28L142.36-4.08Q142.36-1.96 142.88-1.42Q143.40-0.88 144.80-1.20L144.80-1.20L144.80-0.80ZM130.96-4.52Q131.16-3 132.08-2.18Q133.00-1.36 134.22-1.36Q135.44-1.36 136.36-2.56L136.36-2.56L136.36-9.36L134.92-9.16Q133.08-8.92 131.94-7.76Q130.80-6.60 130.96-4.52L130.96-4.52Z M160.64-18.40L166.64-18.40L166.64-17.60L164.68-17.60L157.20 0L156.48 0L147.60-17.60L146-17.60L146-18.40L156.40-18.40L156.40-17.60L154.40-17.60L159.36-7.20L163.80-17.60L160.64-17.60L160.64-18.40Z M186.32-8L186.32-8L174.24-8Q174.64-0.96 179.72-0.96L179.72-0.96Q181.08-0.96 182.82-1.60Q184.56-2.24 185.36-3.40L185.36-3.40L185.92-3Q185.04-1.52 182.92-0.56Q180.80 0.40 178.70 0.40Q176.60 0.40 174.92-0.02Q173.24-0.44 171.64-1.44Q170.04-2.44 169.14-4.44Q168.24-6.44 168.24-9.28L168.24-9.28Q168.24-14.12 170.92-16.46Q173.60-18.80 177.42-18.80Q181.24-18.80 183.78-16.24Q186.32-13.68 186.32-8ZM174.20-9.24L174.20-8.80L180.72-8.80Q180.72-12.48 179.94-15.24Q179.16-18 177.44-18Q175.72-18 174.96-15.34Q174.20-12.68 174.20-9.24L174.20-9.24Z"/></g>
</svg>
</g></svg></svg>